<svg width="43" height="47" viewBox="0 0 43 47" fill="none" xmlns="http://www.w3.org/2000/svg">
<path d="M21.4963 23.6858C14.9751 23.6858 9.66223 18.373 9.66223 11.8518C9.66223 5.33065 14.9751 0 21.4963 0C28.0174 0 33.3303 5.31288 33.3303 11.834C33.3303 18.3552 28.0352 23.6858 21.4963 23.6858ZM21.4963 4.40667C17.3917 4.40667 14.0689 7.74721 14.0689 11.834C14.0689 15.9209 17.4094 19.2614 21.4963 19.2614C25.5831 19.2614 28.9236 15.9209 28.9236 11.834C28.9236 7.74721 25.6009 4.40667 21.4963 4.40667Z" fill="white"/>
<path d="M38.4837 46.7319H4.52745C3.08817 46.7319 1.75551 46.1455 0.902605 45.1327C0.174083 44.2798 -0.127987 43.1603 0.0497017 42.0764C1.54228 33.5652 10.7643 27.1506 21.4967 27.1506C32.229 27.1506 41.4511 33.5652 42.9436 42.0764C43.1391 43.1426 42.8193 44.262 42.0907 45.1327C41.2556 46.1455 39.9229 46.7319 38.4837 46.7319ZM4.50968 42.3074H4.52745H38.4837H38.5014C37.0799 36.1417 29.9013 31.5395 21.4967 31.5395C13.1098 31.5573 5.91341 36.1417 4.50968 42.3074Z" fill="white"/>
</svg>
